<?xml version="1.0" encoding="UTF-8"?>
<svg width="24px" height="24px" viewBox="0 0 24 24" version="1.1" xmlns="http://www.w3.org/2000/svg">
    <path d="M12,0 C5.4,0 0,5.4 0,12 C0,18.6 5.4,24 12,24 C18.6,24 24,18.6 24,12 C24,5.4 18.6,0 12,0 Z M17.521,17.34 C17.281,17.699 16.861,17.82 16.5,17.58 C13.68,15.84 10.14,15.48 5.939,16.439 C5.521,16.561 5.16,16.26 5.04,15.9 C4.92,15.48 5.22,15.12 5.58,15 C10.14,13.98 14.1,14.4 17.28,16.32 C17.639,16.5 17.76,16.98 17.521,17.34 Z M18.961,14.04 C18.66,14.46 18.12,14.64 17.699,14.34 C14.46,12.36 9.54,11.76 5.76,12.9 C5.281,13.08 4.74,12.84 4.56,12.36 C4.38,11.88 4.62,11.34 5.1,11.16 C9.48,9.9 14.94,10.56 18.66,12.84 C19.02,13.02 19.26,13.62 18.961,14.04 Z M19.081,10.68 C15.24,8.4 8.82,8.16 5.16,9.301 C4.56,9.48 3.9,9.18 3.72,8.58 C3.54,7.98 3.84,7.32 4.44,7.14 C8.7,5.82 15.78,6.12 20.22,8.76 C20.76,9.061 20.94,9.78 20.64,10.32 C20.34,10.801 19.621,10.98 19.081,10.68 Z" fill="#FFFFFF"></path>
</svg> 