<svg xmlns="http://www.w3.org/2000/svg" width="100%" height="100%" viewBox="0 0 1200 300" preserveAspectRatio="none">
  <defs>
    <linearGradient id="wave-gradient" x1="0%" y1="0%" x2="100%" y2="0%">
      <stop offset="0%" stop-color="#1DB954" stop-opacity="0.8" />
      <stop offset="50%" stop-color="#1ED760" stop-opacity="0.9" />
      <stop offset="100%" stop-color="#1DB954" stop-opacity="0.8" />
    </linearGradient>
  </defs>
  
  <!-- Primary Wave -->
  <path d="M0,150 
           C150,80 300,220 450,150 
           C600,80 750,220 900,150 
           C1050,80 1200,220 1200,150 
           L1200,300 L0,300 Z" 
        fill="url(#wave-gradient)" 
        opacity="0.7" />
  
  <!-- Secondary Wave -->
  <path d="M0,150 
           C150,100 300,200 450,150 
           C600,100 750,200 900,150 
           C1050,100 1200,200 1200,150 
           L1200,300 L0,300 Z" 
        fill="url(#wave-gradient)" 
        opacity="0.5" 
        transform="translate(0, 20)" />
  
  <!-- Audio Wave Lines -->
  <g stroke="#1DB954" stroke-width="2" stroke-linecap="round" opacity="0.8">
    <!-- Small wave lines for audio visualization effect -->
    <line x1="100" y1="80" x2="100" y2="120" />
    <line x1="120" y1="60" x2="120" y2="140" />
    <line x1="140" y1="70" x2="140" y2="130" />
    <line x1="160" y1="50" x2="160" y2="150" />
    <line x1="180" y1="90" x2="180" y2="110" />
    
    <line x1="400" y1="70" x2="400" y2="130" />
    <line x1="420" y1="50" x2="420" y2="150" />
    <line x1="440" y1="60" x2="440" y2="140" />
    <line x1="460" y1="80" x2="460" y2="120" />
    <line x1="480" y1="90" x2="480" y2="110" />
    
    <line x1="700" y1="80" x2="700" y2="120" />
    <line x1="720" y1="60" x2="720" y2="140" />
    <line x1="740" y1="70" x2="740" y2="130" />
    <line x1="760" y1="50" x2="760" y2="150" />
    <line x1="780" y1="90" x2="780" y2="110" />
    
    <line x1="1000" y1="70" x2="1000" y2="130" />
    <line x1="1020" y1="50" x2="1020" y2="150" />
    <line x1="1040" y1="60" x2="1040" y2="140" />
    <line x1="1060" y1="80" x2="1060" y2="120" />
    <line x1="1080" y1="90" x2="1080" y2="110" />
  </g>
</svg>